<svg width="640" height="640" viewBox="0 0 640 640" fill="none" xmlns="http://www.w3.org/2000/svg">
  <ellipse cx="320" cy="596" rx="118" ry="20" fill="#D6C2A4" fill-opacity="0.35"/>
  <path d="M220 276C220 225.19 261.19 184 312 184H328C378.81 184 420 225.19 420 276V404H220V276Z" fill="#E9F1F3"/>
  <path d="M240 414H400V520C400 560.869 366.869 594 326 594H314C273.131 594 240 560.869 240 520V414Z" fill="#2F6E77"/>
  <path d="M282 404H358V594H282V404Z" fill="#F7F3EA"/>
  <path d="M314 404H326L344 594H296L314 404Z" fill="#C46D3D"/>
  <path d="M252 420H388L418 520H222L252 420Z" fill="#3C848F"/>
  <path d="M266 434H374L392 510H248L266 434Z" fill="#F8FBFB"/>
  <path d="M264 302C264 256.161 301.161 219 347 219H356C401.839 219 439 256.161 439 302V341H264V302Z" fill="#1F2F46"/>
  <path d="M207 301C207 239.144 257.144 189 319 189H323C384.856 189 435 239.144 435 301V332C435 393.856 384.856 444 323 444H319C257.144 444 207 393.856 207 332V301Z" fill="#F5D8B7"/>
  <path d="M240 236C252 198 287 172 325 172C364 172 398 197 411 236C380 223 349 217 318 218C291 219 263 225 240 236Z" fill="#243550"/>
  <path d="M271 303C279.837 303 287 295.837 287 287C287 278.163 279.837 271 271 271C262.163 271 255 278.163 255 287C255 295.837 262.163 303 271 303Z" fill="#243550"/>
  <path d="M369 303C377.837 303 385 295.837 385 287C385 278.163 377.837 271 369 271C360.163 271 353 278.163 353 287C353 295.837 360.163 303 369 303Z" fill="#243550"/>
  <path d="M294 354C309.529 366.404 332.471 366.404 348 354" stroke="#B35D36" stroke-width="10" stroke-linecap="round"/>
  <path d="M312 314H328" stroke="#D79C76" stroke-width="8" stroke-linecap="round"/>
  <path d="M200 305C183.431 305 170 318.431 170 335V343C170 359.569 183.431 373 200 373H211V305H200Z" fill="#F5D8B7"/>
  <path d="M442 305C458.569 305 472 318.431 472 335V343C472 359.569 458.569 373 442 373H431V305H442Z" fill="#F5D8B7"/>
  <path d="M234 443C225.12 465.53 204.742 482.505 180 488C194.973 457.461 195.303 420.793 180.9 390L234 443Z" fill="#2F6E77"/>
  <path d="M406 443C414.88 465.53 435.258 482.505 460 488C445.027 457.461 444.697 420.793 459.1 390L406 443Z" fill="#2F6E77"/>
  <path d="M263 121C282.937 95.6787 312.683 80 344.801 80C376.919 80 406.665 95.6787 426.602 121L344.801 162L263 121Z" fill="#C46D3D"/>
  <path d="M299 115H390L344.5 155L299 115Z" fill="#F9E7CF"/>
  <circle cx="345" cy="241" r="18" fill="#F9E7CF"/>
  <path d="M448 128C468.435 128 485 111.435 485 91C485 70.5655 468.435 54 448 54C427.565 54 411 70.5655 411 91C411 111.435 427.565 128 448 128Z" fill="#F5F0E4"/>
  <path d="M448 71L454.404 84.5958L469 87.1459L458.5 97.4042L460.809 112L448 104.956L435.191 112L437.5 97.4042L427 87.1459L441.596 84.5958L448 71Z" fill="#E2B458"/>
  <path d="M471 156C497.51 156 519 134.51 519 108C519 81.4903 497.51 60 471 60C444.49 60 423 81.4903 423 108C423 134.51 444.49 156 471 156Z" fill="#FFF7E6" fill-opacity="0.7"/>
  <path d="M458 108C458 100.82 463.82 95 471 95C478.18 95 484 100.82 484 108C484 115.18 478.18 121 471 121C463.82 121 458 115.18 458 108Z" fill="#F7C95B"/>
  <path d="M287 460H353" stroke="#D8A454" stroke-width="8" stroke-linecap="round"/>
  <path d="M287 492H353" stroke="#D8A454" stroke-width="8" stroke-linecap="round"/>
</svg>
